<mxfile host="app.diagrams.net" modified="2024-05-20T13:06:55.393Z" agent="Mozilla/5.0 (X11; Ubuntu; Linux x86_64; rv:109.0) Gecko/20100101 Firefox/116.0" version="24.4.4" etag="djm0JoerBd_w5cIcPgMX" type="github">
  <diagram name="Page-1" id="ahGElyPXcXu-9cwmEskQ">
    <mxGraphModel>
      <root>
        <mxCell id="0" />
        <mxCell id="1" parent="0" />
      </root>
    </mxGraphModel>
  </diagram>
</mxfile>
